<?xml version="1.0" encoding="utf-8"?>
<!-- Generator: Adobe Illustrator 24.1.0, SVG Export Plug-In . SVG Version: 6.00 Build 0)  -->
<svg version="1.1" id="Layer_1" xmlns="http://www.w3.org/2000/svg" xmlns:xlink="http://www.w3.org/1999/xlink" x="0px" y="0px"
	 viewBox="0 0 100 100" style="enable-background:new 0 0 100 100;" xml:space="preserve">
<style type="text/css">
	.st0{fill:#FACC48;}
	.st1{fill:#685992;}
</style>
<g>
	<g>
		<path class="st0" d="M44.48,53.56H83.2c4.52,0,8.23-3.7,8.23-8.23V20.41c0-4.52-3.7-8.23-8.23-8.23H44.48
			c-4.52,0-8.23,3.7-8.23,8.23v24.93C36.26,49.86,39.96,53.56,44.48,53.56z"/>
		<polygon class="st0" points="75.17,51.63 66.47,62.42 66.47,51.63 		"/>
		
			<rect x="50.3" y="27.9" transform="matrix(-1 -5.647006e-11 5.647006e-11 -1 127.6847 58.872)" class="st1" width="27.09" height="3.07"/>
		
			<rect x="50.3" y="36.36" transform="matrix(-1 -5.647006e-11 5.647006e-11 -1 127.6847 75.7898)" class="st1" width="27.09" height="3.07"/>
	</g>
	<path class="st1" d="M30.46,87.82c8.08-0.13,14.1-0.58,19.85-2.68c1.63-0.6,3.14-1.55,4.6-2.5c1.04-0.68,1.51-1.8,1.41-3.09
		c-0.02-0.25-0.03-0.51,0-0.75c0.48-3.3-1.05-5.64-3.48-7.64c-3.43-2.83-7.31-4.81-11.5-6.21c-1.84-0.61-2.33-1.29-2.35-3.23
		c0-0.14,0.02-0.29,0-0.43c-0.19-1.37,0.34-2.34,1.28-3.4c4.06-4.56,5.82-9.97,4.98-16.04c-0.83-6.03-5.6-10.14-11.83-10.39
		c-4.59-0.18-8.62,1.07-11.5,4.9c-1.95,2.59-2.58,5.61-2.41,8.77c0.29,5.28,2.17,9.93,6.01,13.68c0.13,0.12,0.29,0.24,0.36,0.39
		c1.01,2.08-0.26,5.1-2.46,5.83c-4.39,1.44-8.31,3.65-11.87,6.63c-2.91,2.43-3.25,5.51-2.86,8.87c0.15,1.3,1.13,2.13,2.17,2.82
		c2.88,1.9,6.14,2.83,9.48,3.33C24.36,87.26,28.41,87.59,30.46,87.82z"/>
</g>
</svg>
